<?xml version="1.0" encoding="iso-8859-1"?>
<!-- Generator: Adobe Illustrator 19.0.0, SVG Export Plug-In . SVG Version: 6.00 Build 0)  -->
<svg version="1.1" id="Layer_1" xmlns="http://www.w3.org/2000/svg" xmlns:xlink="http://www.w3.org/1999/xlink" x="0px" y="0px"
	 viewBox="0 0 512 512" style="enable-background:new 0 0 512 512;" xml:space="preserve">
<polygon style="fill:#ECE7EA;" points="503.742,79.828 503.742,487.226 8.258,487.226 8.258,79.828 256,57.806 "/>
<polygon style="fill:#F14742;" points="503.742,24.774 503.742,79.828 448.688,79.828 415.656,52.301 448.688,24.774 "/>
<rect x="8.258" y="24.774" style="fill:#1B4145;" width="440.43" height="55.054"/>
<rect x="278.022" y="294.538" style="fill:#F14742;" width="159.656" height="132.129"/>
<path d="M503.742,16.516H8.258C3.696,16.516,0,20.214,0,24.774v462.452c0,4.561,3.696,8.258,8.258,8.258h495.484
	c4.562,0,8.258-3.697,8.258-8.258V24.774C512,20.214,508.304,16.516,503.742,16.516z M495.484,71.57h-38.538V33.032h38.538V71.57z
	 M440.43,33.032V71.57H16.516V33.032H440.43z M16.516,478.968V88.086h478.968v390.882H16.516z"/>
<path d="M437.677,242.237H74.323c-4.562,0-8.258,3.697-8.258,8.258s3.696,8.258,8.258,8.258h363.355
	c4.562,0,8.258-3.697,8.258-8.258S442.239,242.237,437.677,242.237z"/>
<path d="M233.979,286.28H74.323c-4.562,0-8.258,3.697-8.258,8.258c0,4.561,3.696,8.258,8.258,8.258h159.656
	c4.562,0,8.258-3.697,8.258-8.258C242.237,289.977,238.54,286.28,233.979,286.28z"/>
<path d="M233.979,330.323H74.323c-4.562,0-8.258,3.697-8.258,8.258c0,4.561,3.696,8.258,8.258,8.258h159.656
	c4.562,0,8.258-3.697,8.258-8.258C242.237,334.02,238.54,330.323,233.979,330.323z"/>
<path d="M233.979,374.366H74.323c-4.562,0-8.258,3.697-8.258,8.258c0,4.561,3.696,8.258,8.258,8.258h159.656
	c4.562,0,8.258-3.697,8.258-8.258C242.237,378.063,238.54,374.366,233.979,374.366z"/>
<path d="M437.677,286.28H278.022c-4.562,0-8.258,3.697-8.258,8.258v33.032c0,4.561,3.696,8.258,8.258,8.258s8.258-3.697,8.258-8.258
	v-24.774h143.14v115.613H286.28v-57.806c0-4.561-3.696-8.258-8.258-8.258s-8.258,3.697-8.258,8.258v66.065
	c0,4.561,3.696,8.258,8.258,8.258h159.656c4.562,0,8.258-3.697,8.258-8.258V294.538C445.935,289.977,442.239,286.28,437.677,286.28z
	"/>
<path d="M233.979,418.409H74.323c-4.562,0-8.258,3.697-8.258,8.258c0,4.561,3.696,8.258,8.258,8.258h159.656
	c4.562,0,8.258-3.697,8.258-8.258C242.237,422.106,238.54,418.409,233.979,418.409z"/>
<path d="M370.667,176.513c5.563,2.927,12.165,4.007,18.551,5.051c14.369,2.35,16.412,3.896,16.412,8.366
	c0,6.524-9.475,8.265-15.074,8.265c-7.488,0-13.406-2.447-14.722-6.089c-1.553-4.29-6.293-6.507-10.575-4.955
	c-4.29,1.551-6.507,6.286-4.956,10.575c3.79,10.476,15.382,16.984,30.252,16.984c18.6,0,31.59-10.19,31.59-24.781
	c0-8.8-4.048-15.581-11.706-19.612c-5.564-2.928-12.169-4.009-18.556-5.053c-14.361-2.349-16.403-3.891-16.403-8.354
	c0-6.524,9.475-8.265,15.074-8.265c7.487,0,13.403,2.447,14.724,6.087c1.554,4.286,6.286,6.507,10.577,4.949
	c4.289-1.555,6.504-6.29,4.949-10.578c-3.794-10.47-15.385-16.974-30.249-16.974c-18.6,0-31.59,10.19-31.59,24.781
	C358.965,165.706,363.011,172.485,370.667,176.513z"/>
<path d="M275.966,208.48c0.847,3.337,3.673,5.8,7.095,6.179c3.41,0.385,6.721-1.403,8.277-4.475l9.373-18.497l9.373,18.497
	c1.418,2.797,4.28,4.525,7.364,4.525c0.303,0,0.608-0.017,0.913-0.051c3.422-0.379,6.25-2.842,7.095-6.179l16.74-66.065
	c1.121-4.421-1.556-8.913-5.978-10.033c-4.42-1.12-8.912,1.555-10.033,5.977l-11.328,44.707l-6.779-13.379
	c-1.407-2.776-4.255-4.525-7.366-4.525c-3.112,0-5.959,1.75-7.366,4.525l-6.779,13.379l-11.328-44.707
	c-1.121-4.422-5.614-7.093-10.033-5.977c-4.422,1.12-7.098,5.612-5.978,10.033L275.966,208.48z"/>
<path d="M187.534,214.71h46.665c4.562,0,8.258-3.697,8.258-8.258s-3.696-8.258-8.258-8.258h-38.407v-16.516h22.852
	c4.562,0,8.258-3.697,8.258-8.258s-3.696-8.258-8.258-8.258h-22.852v-16.516h38.407c4.562,0,8.258-3.697,8.258-8.258
	s-3.696-8.258-8.258-8.258h-46.665c-4.562,0-8.258,3.697-8.258,8.258v66.065C179.276,211.012,182.973,214.71,187.534,214.71z"/>
<path d="M98.112,214.71c4.562,0,8.258-3.697,8.258-8.258v-43.67l41.851,49.031c1.6,1.875,3.912,2.897,6.283,2.897
	c0.956,0,1.922-0.166,2.855-0.511c3.245-1.196,5.401-4.289,5.401-7.748v-66.065c0-4.561-3.696-8.258-8.258-8.258
	c-4.562,0-8.258,3.697-8.258,8.258v43.67l-41.851-49.031c-2.245-2.63-5.894-3.584-9.138-2.386c-3.245,1.196-5.401,4.289-5.401,7.748
	v66.065C89.854,211.012,93.552,214.71,98.112,214.71z"/>
<g>
</g>
<g>
</g>
<g>
</g>
<g>
</g>
<g>
</g>
<g>
</g>
<g>
</g>
<g>
</g>
<g>
</g>
<g>
</g>
<g>
</g>
<g>
</g>
<g>
</g>
<g>
</g>
<g>
</g>
</svg>
